<?xml version="1.0" standalone="no"?>
<!DOCTYPE svg PUBLIC "-//W3C//DTD SVG 20010904//EN"
 "http://www.w3.org/TR/2001/REC-SVG-20010904/DTD/svg10.dtd">
<svg version="1.0" xmlns="http://www.w3.org/2000/svg"
 width="1892.000000pt" height="905.000000pt" viewBox="0 0 1892.000000 905.000000"
 preserveAspectRatio="xMidYMid meet">

<g transform="translate(0.000000,905.000000) scale(0.100000,-0.100000)"
fill="#000000" stroke="none">
<path d="M0 4525 l0 -4525 9460 0 9460 0 0 4525 0 4525 -9460 0 -9460 0 0
-4525z m7339 1217 c46 -24 71 -23 71 3 0 8 5 15 10 15 6 0 10 -42 10 -105 0
-58 -4 -105 -9 -105 -5 0 -14 21 -21 48 -24 98 -80 152 -157 152 -30 0 -50 -7
-72 -26 -27 -22 -31 -32 -31 -74 0 -62 15 -80 149 -173 58 -40 118 -90 135
-111 28 -34 31 -44 31 -109 0 -59 -4 -78 -23 -104 -56 -79 -214 -107 -332 -59
-65 26 -80 26 -80 0 0 -8 -4 -14 -10 -14 -6 0 -9 51 -9 125 0 69 3 125 7 125
4 0 15 -33 25 -72 19 -81 37 -112 88 -146 28 -20 43 -23 88 -19 46 3 59 9 83
36 19 22 28 42 28 67 0 67 -38 112 -174 205 -107 72 -136 114 -136 191 0 32 7
72 15 88 15 29 66 66 113 81 49 15 153 6 201 -19z m-1119 7 c0 -5 -9 -9 -19
-9 -27 0 -51 -27 -45 -48 30 -91 179 -461 184 -455 4 5 37 90 73 190 76 206
85 269 45 297 -12 9 -30 16 -40 16 -10 0 -18 4 -18 10 0 5 40 9 95 8 52 0 95
-3 95 -6 0 -3 -15 -19 -32 -37 -18 -17 -43 -58 -55 -91 -13 -32 -63 -167 -112
-299 l-88 -240 -33 0 -33 0 -128 315 c-81 198 -136 320 -149 329 -11 7 -20 17
-20 21 0 4 63 8 140 8 77 0 140 -4 140 -9z m690 2 c0 -4 -15 -11 -32 -16 l-33
-10 0 -305 0 -305 33 -10 c62 -18 31 -25 -113 -25 -90 0 -145 4 -145 10 0 6 9
10 19 10 11 0 27 7 35 16 14 13 16 55 16 304 0 249 -2 291 -16 304 -8 9 -24
16 -35 16 -10 0 -19 4 -19 9 0 5 65 9 145 9 80 0 145 -3 145 -7z m920 -2 c0
-5 -9 -9 -19 -9 -44 0 -51 -23 -51 -171 l0 -139 130 0 130 0 0 139 c0 148 -7
171 -51 171 -10 0 -19 4 -19 9 0 5 65 9 145 9 80 0 145 -4 145 -9 0 -5 -11 -9
-24 -9 -49 0 -51 -12 -51 -320 0 -308 2 -320 51 -320 13 0 24 -4 24 -10 0 -6
-55 -10 -145 -10 -90 0 -145 4 -145 10 0 6 9 10 19 10 44 0 51 23 51 171 l0
139 -130 0 -130 0 0 -139 c0 -148 7 -171 51 -171 10 0 19 -4 19 -10 0 -6 -55
-10 -145 -10 -144 0 -175 7 -112 25 l32 10 0 305 0 305 -32 10 c-18 5 -33 12
-33 16 0 3 65 7 145 7 80 0 145 -4 145 -9z m794 -180 c83 -103 168 -206 188
-230 l37 -44 1 183 c0 210 -8 246 -59 257 -57 12 -32 23 54 23 47 -1 85 -4 85
-7 0 -3 -13 -13 -29 -22 -38 -22 -41 -44 -41 -372 l0 -278 -22 3 c-15 2 -82
79 -213 246 -106 134 -199 250 -208 260 -16 15 -17 1 -17 -211 l0 -228 25 -24
c13 -14 33 -25 45 -25 11 0 20 -4 20 -10 0 -6 -37 -10 -90 -10 -87 0 -117 11
-65 24 13 3 29 15 35 26 7 12 9 121 8 307 l-3 288 -32 10 c-55 15 -37 23 49
21 l81 -1 151 -186z m656 180 c0 -4 -12 -9 -27 -11 -50 -6 -54 -29 -51 -293 3
-217 5 -244 23 -280 26 -52 56 -67 130 -63 135 8 165 73 165 369 0 214 -6 243
-56 261 -19 6 -34 15 -34 19 0 4 41 7 90 7 50 0 90 -4 90 -9 0 -5 -6 -9 -14
-9 -8 0 -24 -9 -37 -19 -24 -19 -24 -22 -29 -258 -6 -277 -14 -309 -91 -360
-39 -26 -50 -28 -138 -28 -86 0 -101 3 -141 27 -28 16 -55 43 -70 70 -24 42
-25 49 -30 296 -5 267 -6 271 -52 272 -10 0 -18 4 -18 9 0 5 65 9 145 9 80 0
145 -4 145 -9z m1017 -7 c164 -52 146 -229 -29 -288 l-53 -18 55 -8 c117 -17
190 -81 190 -165 0 -89 -56 -145 -166 -168 -75 -15 -404 -18 -404 -3 0 4 9 8
19 8 11 0 27 7 35 16 14 13 16 55 16 304 0 249 -2 291 -16 304 -8 9 -24 16
-35 16 -10 0 -19 4 -19 9 0 12 367 5 407 -7z m523 6 c0 -4 -12 -8 -27 -10 -49
-5 -53 -28 -53 -318 0 -290 4 -313 53 -318 15 -2 27 -6 27 -10 0 -4 -65 -7
-145 -7 -80 0 -145 3 -145 8 0 4 11 7 24 7 45 0 46 10 44 326 l-3 299 -32 10
c-18 5 -33 12 -33 15 0 3 65 5 145 5 80 0 145 -3 145 -7z m295 -71 c33 -41 88
-109 123 -151 34 -43 59 -82 56 -88 -4 -6 -2 -8 3 -5 13 8 125 -127 115 -138
-4 -5 -1 -5 6 -1 9 5 12 57 12 202 0 194 0 195 -25 219 -13 14 -33 25 -45 25
-11 0 -20 3 -20 8 0 4 38 7 85 7 47 0 85 -3 85 -7 0 -5 -6 -8 -13 -8 -19 0
-43 -30 -50 -61 -4 -14 -7 -155 -8 -312 0 -189 -4 -287 -11 -287 -6 0 -8 7 -5
15 4 8 2 17 -4 20 -5 4 -9 3 -8 -2 3 -20 -2 -34 -11 -28 -6 4 -9 14 -8 23 2 9
-3 17 -10 17 -16 0 -33 26 -25 39 3 5 1 6 -4 3 -11 -7 -126 129 -126 150 0 6
-5 11 -10 10 -5 -1 -12 4 -15 12 -3 9 0 11 8 6 9 -5 11 -4 6 4 -4 6 -11 9 -16
6 -5 -3 -52 50 -105 117 -54 68 -102 125 -107 127 -10 4 -7 -463 4 -474 3 -4
24 -13 45 -20 21 -8 31 -15 23 -15 -81 -5 -170 -4 -170 3 0 4 8 7 18 7 11 0
27 9 38 21 18 19 19 42 22 293 3 297 -1 318 -51 324 -59 7 -23 17 56 15 l82
-1 60 -75z m668 56 c17 -21 18 -47 16 -313 l-1 -291 23 -27 c13 -14 17 -21 9
-15 -8 6 -46 11 -85 12 -38 1 -72 4 -75 7 -3 3 -7 144 -10 312 l-5 307 -32 10
c-18 5 -33 12 -33 15 0 3 39 5 87 5 79 0 90 -2 106 -22z m205 14 c6 0 12 -4
12 -8 0 -5 6 -6 13 -3 20 7 89 -25 81 -38 -4 -7 -3 -8 5 -4 14 9 91 -50 91
-69 0 -8 -7 -20 -15 -29 -17 -16 -21 -41 -5 -31 6 3 10 1 10 -4 0 -6 -4 -11
-9 -11 -5 0 -14 -23 -21 -51 -7 -27 -14 -48 -16 -46 -3 2 0 24 5 48 8 33 6 48
-5 68 l-15 26 4 -27 c2 -15 0 -25 -4 -22 -5 3 -10 15 -10 27 -1 17 -3 15 -8
-8 l-7 -30 -7 34 c-4 18 -5 37 -2 41 3 4 -2 11 -11 14 -10 4 -14 12 -10 23 4
10 4 14 0 10 -4 -4 -13 1 -20 11 -16 20 -18 36 -4 27 6 -3 10 -1 10 5 0 7 -6
10 -12 7 -7 -2 -31 6 -53 17 -47 24 -160 30 -174 8 -6 -10 -11 -9 -22 4 -8 10
-9 15 -4 12 6 -4 17 -2 25 3 9 6 46 8 90 4 41 -4 81 -7 88 -8z m387 -7 c3 -5
1 -10 -4 -10 -6 0 -11 5 -11 10 0 6 2 10 4 10 3 0 8 -4 11 -10z m36 3 c-11 -5
-11 -7 0 -15 12 -8 12 -9 0 -6 -22 6 -25 28 -4 27 12 0 14 -2 4 -6z m83 -8
c-4 -9 0 -15 9 -15 21 0 31 -17 16 -26 -8 -5 -9 -3 -4 6 6 10 4 12 -8 7 -10
-3 -17 -2 -17 2 0 5 -12 14 -27 20 -21 8 -22 10 -6 7 13 -2 26 0 29 5 9 14 14
10 8 -6z m49 -8 c-5 -8 -8 -7 -11 1 -2 7 -9 9 -14 6 -7 -4 -8 -2 -4 4 4 6 13
9 21 6 8 -4 12 -11 8 -17z m-123 -22 c0 -1 -9 -5 -20 -8 -12 -3 -20 0 -20 8 0
8 8 11 20 8 11 -3 20 -7 20 -8z m-215 -130 c0 -14 -3 -25 -7 -25 -5 0 -8 11
-8 25 0 14 3 25 8 25 4 0 7 -11 7 -25z m16 -38 c-10 -9 -11 -8 -5 6 3 10 9 15
12 12 3 -3 0 -11 -7 -18z m-26 -8 c11 -16 1 -19 -13 -3 -7 8 -8 14 -3 14 5 0
13 -5 16 -11z m-76 -46 c-1 -42 -2 -44 -9 -21 -7 25 -3 68 6 68 2 0 4 -21 3
-47z m71 8 c0 -5 -7 -11 -14 -14 -10 -4 -13 -1 -9 9 6 15 23 19 23 5z m-72
-136 c-3 -3 -9 2 -12 12 -6 14 -5 15 5 6 7 -7 10 -15 7 -18z m21 -148 c-2 -1
-11 -8 -21 -15 -12 -10 -18 -10 -24 -1 -4 7 -3 9 4 5 6 -3 13 -2 17 4 3 5 11
10 17 10 6 0 9 -1 7 -3z m-41 -52 c-3 -3 -9 2 -12 12 -6 14 -5 15 5 6 7 -7 10
-15 7 -18z m-65 -20 c-3 -9 -8 -14 -10 -11 -3 3 -2 9 2 15 9 16 15 13 8 -4z
m-379 -30 c-4 -8 -11 -15 -16 -15 -6 0 -5 6 2 15 7 8 14 15 16 15 2 0 1 -7 -2
-15z m-34 -9 c0 -2 -7 -6 -15 -10 -8 -3 -15 -1 -15 4 0 6 7 10 15 10 8 0 15
-2 15 -4z m-3164 -321 c37 -19 69 -35 71 -35 2 0 10 15 18 33 13 30 14 25 15
-85 0 -72 -4 -118 -10 -118 -5 0 -10 11 -10 24 0 36 -28 108 -53 135 -30 33
-94 61 -140 61 -76 0 -134 -51 -168 -150 -30 -87 -33 -267 -5 -350 35 -103 96
-160 174 -160 103 0 176 69 189 181 11 91 23 50 22 -73 -1 -115 -2 -121 -15
-90 -8 17 -16 32 -19 32 -3 0 -31 -15 -63 -32 -53 -31 -64 -33 -147 -33 -111
0 -174 25 -238 94 -63 67 -82 124 -82 246 0 123 19 179 84 248 71 76 136 105
243 106 58 1 76 -4 134 -34z m-2521 1 c87 -37 118 -98 90 -172 -19 -51 -62
-87 -131 -111 l-49 -17 54 -8 c158 -24 231 -141 160 -257 -13 -21 -40 -42 -77
-59 -55 -26 -65 -27 -264 -30 -147 -3 -208 -1 -208 7 0 6 9 11 19 11 11 0 27
7 35 16 14 13 16 55 16 304 0 249 -2 291 -16 304 -8 9 -24 16 -35 16 -10 0
-19 4 -19 10 0 6 71 9 193 7 155 -3 200 -7 232 -21z m639 -283 c91 -238 124
-314 147 -335 16 -15 29 -30 29 -33 0 -3 -65 -5 -145 -5 -90 0 -145 4 -145 10
0 6 11 10 24 10 13 0 30 7 37 16 11 14 8 31 -22 118 l-36 101 -109 0 -108 0
-19 -50 c-46 -118 -41 -170 18 -181 65 -12 36 -24 -60 -24 -52 0 -95 2 -95 5
0 3 15 19 33 35 28 24 51 76 152 334 l119 306 31 0 32 0 117 -307z m486 296
c0 -5 -11 -9 -24 -9 -55 0 -56 -6 -56 -324 0 -214 3 -295 12 -304 7 -7 39 -12
74 -12 47 0 69 5 95 23 41 28 75 77 91 131 20 73 28 62 28 -41 0 -56 3 -108 6
-117 6 -14 -21 -16 -260 -16 -146 0 -266 4 -266 8 0 4 15 12 33 17 l32 10 0
305 0 305 -32 10 c-18 5 -33 12 -33 16 0 4 68 7 150 7 83 0 150 -4 150 -9z
m719 -287 c124 -322 136 -349 163 -358 50 -15 5 -24 -127 -24 -90 0 -145 4
-145 10 0 6 11 10 24 10 13 0 30 7 37 16 14 17 12 25 -43 172 l-19 52 -108 0
-108 0 -26 -77 c-15 -43 -27 -88 -27 -100 0 -30 34 -63 65 -63 14 0 25 -4 25
-10 0 -6 -38 -10 -95 -10 -52 0 -95 3 -95 6 0 3 11 15 25 26 35 28 48 55 170
371 l108 277 31 0 31 0 114 -298z m1161 287 c0 -5 -9 -9 -19 -9 -41 0 -51 -35
-51 -177 l0 -133 135 0 135 0 0 128 c0 143 -10 175 -53 180 -15 2 -27 7 -27
12 0 4 65 8 145 8 80 -1 145 -5 145 -9 0 -5 -9 -9 -19 -9 -11 0 -27 -7 -35
-16 -14 -13 -16 -55 -16 -304 0 -249 2 -291 16 -304 8 -9 24 -16 35 -16 10 0
19 -4 19 -10 0 -6 -55 -10 -145 -10 -90 0 -145 4 -145 10 0 6 11 10 24 10 43
0 51 23 54 172 l4 138 -136 0 -136 0 0 -119 c0 -158 5 -181 41 -188 67 -13 20
-23 -111 -23 -87 0 -140 4 -140 10 0 6 9 10 19 10 11 0 27 7 35 16 14 13 16
54 16 292 0 152 -3 287 -6 300 -4 15 -17 25 -35 29 -64 12 -22 20 111 20 77 0
140 -4 140 -8z m916 -296 c84 -217 127 -316 147 -336 15 -16 27 -30 27 -31 0
-1 -63 -3 -140 -4 -78 -1 -140 3 -140 8 0 5 12 10 28 12 39 4 40 40 0 148
l-32 91 -110 -3 -109 -3 -23 -60 c-23 -59 -30 -118 -18 -149 3 -8 21 -18 40
-22 60 -11 36 -20 -56 -21 -49 0 -90 1 -90 4 0 2 14 16 30 31 24 21 54 88 141
312 61 157 115 295 120 308 6 16 17 22 37 22 29 0 30 -3 148 -307z m410 232
c31 -39 100 -124 153 -189 53 -65 109 -135 124 -155 15 -20 33 -38 39 -40 15
-5 6 377 -10 406 -7 13 -26 25 -47 29 -63 11 -37 21 55 20 90 -1 113 -8 65
-20 -15 -4 -30 -18 -35 -32 -6 -14 -10 -157 -10 -325 l0 -299 -22 1 c-17 0
-51 36 -133 141 -255 326 -297 378 -306 378 -14 0 -10 -408 4 -450 10 -28 20
-37 52 -46 45 -14 41 -15 -67 -19 -77 -2 -102 7 -53 19 15 4 30 18 35 32 6 14
10 147 10 299 0 293 -2 305 -51 305 -10 0 -19 4 -19 9 0 5 36 9 80 8 l80 -2
56 -70z m897 57 c7 -6 16 -9 20 -6 11 12 120 -51 147 -86 74 -93 90 -257 38
-372 -29 -62 -103 -142 -125 -134 -8 3 -12 2 -9 -3 6 -10 -53 -37 -104 -47
-47 -10 -390 -11 -390 -1 0 4 10 7 23 7 46 0 47 7 47 320 0 313 -1 320 -47
320 -13 0 -23 3 -23 8 0 13 406 7 423 -6z m547 5 c175 -2 188 -3 233 -27 47
-24 73 -51 60 -64 -3 -3 -1 -6 6 -6 7 0 9 -5 6 -10 -4 -6 -1 -17 5 -25 16 -20
6 -70 -23 -112 -20 -30 -48 -49 -31 -21 4 7 3 8 -5 4 -6 -4 -9 -11 -6 -16 9
-14 -43 -43 -76 -43 -16 0 -29 -5 -29 -10 0 -5 -9 -7 -19 -4 -13 3 -18 0 -15
-8 3 -7 14 -11 24 -8 10 3 33 -2 51 -11 18 -9 37 -16 43 -16 16 -1 47 -47 49
-73 0 -12 4 -24 8 -27 3 -3 10 -20 14 -37 6 -29 4 -34 -19 -43 -29 -11 -26
-35 5 -43 20 -5 26 7 9 18 -12 7 -4 25 11 25 11 0 12 -40 1 -55 -4 -6 -18 -16
-32 -22 l-25 -11 28 -7 c15 -4 27 -11 27 -16 0 -6 -8 -5 -19 1 -27 14 -51 13
-31 -1 13 -9 13 -10 0 -6 -8 2 -14 10 -12 17 1 6 -3 10 -10 7 -22 -7 -48 12
-41 30 4 11 3 14 -5 9 -11 -7 -13 -2 -17 44 0 8 -4 20 -8 26 -4 7 -9 30 -11
53 -2 23 -6 44 -10 48 -3 3 -6 14 -6 24 0 10 -11 30 -23 45 -19 21 -34 28 -70
30 -26 1 -49 -1 -51 -5 -3 -4 -6 -72 -6 -152 -2 -127 0 -144 14 -141 9 2 16
-2 16 -8 0 -6 -44 -10 -122 -9 -109 0 -119 2 -88 12 l35 12 3 297 c2 259 0
298 -14 312 -8 9 -24 16 -35 16 -10 0 -19 4 -19 9 0 4 10 7 23 4 12 -2 105 -4
207 -6z m717 0 c-3 -8 1 -14 8 -14 8 0 11 7 7 15 -3 10 -1 13 6 8 15 -9 16
-56 2 -56 -5 0 -10 6 -11 13 0 9 -2 9 -6 -1 -2 -6 -10 -9 -15 -6 -6 4 -8 2 -5
-4 4 -5 18 -9 32 -7 30 3 45 -19 41 -58 -2 -15 1 -30 7 -34 6 -3 7 -1 3 5 -4
7 -2 12 3 12 10 0 12 -6 15 -42 1 -7 4 -15 7 -18 3 -3 0 -18 -8 -35 -12 -25
-13 -26 -9 -5 6 30 -3 70 -16 70 -5 0 -20 -12 -34 -27 -18 -19 -21 -29 -12
-34 20 -13 47 8 41 33 -4 21 -3 21 7 5 8 -12 8 -26 1 -45 -5 -15 -10 -21 -10
-14 -1 6 -6 12 -12 12 -6 0 -9 -6 -6 -14 3 -8 1 -16 -5 -18 -6 -2 -11 -18 -10
-36 0 -18 -3 -32 -8 -32 -5 0 -6 7 -3 17 5 12 3 14 -8 8 -8 -4 -11 -5 -7 0 4
4 3 14 -2 20 -6 7 -8 20 -4 29 10 26 22 18 17 -11 -3 -24 -2 -25 6 -8 15 32
13 42 -13 47 -19 4 -23 1 -18 -11 3 -9 2 -13 -2 -10 -6 6 -10 18 -22 79 -3 14
-12 32 -20 41 -18 20 -18 21 7 50 11 13 16 25 10 27 -12 4 -3 32 11 32 5 0 6
-5 2 -12 -4 -7 -3 -8 5 -4 8 6 9 12 2 20 -12 15 -5 26 17 26 8 0 12 -6 9 -13z
m528 -48 c-4 -5 -12 -9 -18 -8 -9 0 -8 2 1 6 6 2 9 10 6 15 -4 7 -2 8 5 4 6
-4 9 -12 6 -17z m-105 7 c0 -3 -4 -8 -10 -11 -5 -3 -10 -1 -10 4 0 6 5 11 10
11 6 0 10 -2 10 -4z m28 -10 c-7 -8 -15 -12 -17 -11 -5 6 10 25 20 25 5 0 4
-6 -3 -14z m106 -34 c3 -5 -1 -9 -9 -9 -8 0 -12 4 -9 9 3 4 7 8 9 8 2 0 6 -4
9 -8z m-69 -65 c3 -4 2 -5 -2 -2 -3 3 -12 0 -18 -5 -9 -7 -16 -6 -24 3 -9 11
-6 14 14 13 13 -1 27 -5 30 -9z m5 -33 c0 -8 -19 -13 -24 -6 -3 5 1 9 9 9 8 0
15 -2 15 -3z m190 -49 c7 -9 8 -15 2 -15 -5 0 -12 7 -16 15 -3 8 -4 15 -2 15
2 0 9 -7 16 -15z m-603 -57 c-3 -8 -6 -5 -6 6 -1 11 2 17 5 13 3 -3 4 -12 1
-19z m-33 -22 c-3 -15 -8 -25 -11 -23 -2 3 -1 17 3 31 3 15 8 25 11 23 2 -3 1
-17 -3 -31z m-213 -43 c-12 -20 -14 -14 -5 12 4 9 9 14 11 11 3 -2 0 -13 -6
-23z m42 -50 c-7 -2 -19 -2 -25 0 -7 3 -2 5 12 5 14 0 19 -2 13 -5z m80 0
c-13 -2 -33 -2 -45 0 -13 2 -3 4 22 4 25 0 35 -2 23 -4z m-195 -194 c-3 -8 -7
-3 -11 10 -4 17 -3 21 5 13 5 -5 8 -16 6 -23z m-126 -39 c17 0 27 -19 11 -21
-5 0 -19 -2 -33 -4 -14 -2 -19 -1 -12 1 6 3 12 10 12 15 0 4 -6 7 -12 5 -7 -1
-10 -1 -5 1 4 3 4 10 1 16 -5 8 -2 8 7 0 7 -7 21 -13 31 -13z m114 7 c4 -4 15
-7 25 -7 10 0 20 -4 24 -9 3 -6 -6 -6 -24 -1 -18 5 -33 4 -39 -2 -7 -7 -16 -6
-29 1 -16 10 -15 11 7 5 22 -6 23 -5 12 9 -11 13 -11 15 2 13 9 -1 19 -5 22
-9z m-2664 -942 l3 -115 -25 0 -25 0 0 115 c0 112 1 115 22 115 21 0 22 -4 25
-115z m638 95 c0 -13 -7 -20 -20 -20 -13 0 -20 7 -20 20 0 13 7 20 20 20 13 0
20 -7 20 -20z m590 0 c0 -21 -24 -28 -35 -10 -8 14 3 30 21 30 8 0 14 -9 14
-20z m-2764 -97 c21 -54 42 -101 48 -105 6 -4 -9 -7 -34 -7 -25 0 -40 3 -33 6
9 3 4 27 -17 86 -28 75 -31 117 -10 117 5 0 25 -44 46 -97z m146 -8 l3 -105
-34 0 c-28 0 -31 2 -21 14 7 10 10 45 8 105 -3 88 -2 91 19 91 21 0 22 -5 25
-105z m213 0 l0 -105 -35 0 c-23 0 -30 3 -22 9 10 6 13 33 10 105 l-3 96 25 0
25 0 0 -105z m85 85 c11 -11 20 -23 20 -28 0 -16 -32 -52 -47 -52 -11 0 -8 -6
11 -21 14 -11 26 -30 26 -43 0 -12 6 -28 13 -35 10 -10 6 -12 -18 -9 -25 3
-30 8 -37 43 -5 22 -15 45 -23 51 -13 10 -13 12 5 17 15 4 20 13 20 39 0 19
-5 39 -12 46 -9 9 -8 12 5 12 9 0 26 -9 37 -20z m1370 0 c-11 -21 -8 -26 69
-91 17 -15 31 -34 31 -43 0 -19 -35 -56 -52 -56 -9 0 -9 3 0 12 22 22 13 46
-30 79 -24 19 -46 38 -50 44 -12 17 -9 43 8 59 22 23 37 20 24 -4z m90 -6 c0
-8 -4 -12 -10 -9 -5 3 -10 10 -10 16 0 5 5 9 10 9 6 0 10 -7 10 -16z m753
-176 c8 -5 4 -8 -10 -8 -31 0 -34 9 -37 105 -3 71 0 85 13 87 14 3 16 -10 19
-86 2 -57 7 -93 15 -98z m368 98 c-1 -72 1 -86 16 -95 16 -9 15 -10 -8 -11
-34 0 -39 14 -39 110 0 54 4 80 13 83 6 2 14 3 16 1 2 -2 3 -41 2 -88z m-2413
38 c25 -17 30 -54 8 -54 -9 0 -16 12 -18 28 -2 19 -9 27 -23 27 -17 0 -20 -8
-23 -48 -4 -56 9 -77 47 -77 20 0 23 -2 11 -10 -8 -5 -27 -10 -42 -10 -57 0
-79 90 -33 135 28 29 42 31 73 9z m120 9 c-28 -7 -21 -30 17 -59 36 -27 45
-60 23 -82 -16 -16 -29 -15 -22 2 3 9 -9 30 -30 51 -20 20 -36 44 -36 55 0 20
25 40 50 39 11 -1 10 -3 -2 -6z m200 -9 c25 -17 30 -54 8 -54 -9 0 -16 12 -18
28 -2 19 -9 27 -23 27 -17 0 -20 -8 -23 -48 -4 -56 9 -77 47 -77 20 0 23 -2
11 -10 -8 -5 -27 -10 -42 -10 -57 0 -79 90 -33 135 28 29 42 31 73 9z m162 6
c10 -6 16 -33 20 -80 4 -61 3 -70 -11 -70 -22 0 -29 20 -29 90 0 37 -5 60 -12
63 -9 4 -8 6 2 6 8 0 22 -4 30 -9z m188 -18 c2 -15 -2 -22 -12 -22 -11 0 -15
8 -14 25 3 30 22 28 26 -3z m98 12 c-21 -20 -21 -97 -1 -114 8 -7 24 -10 36
-7 16 4 18 3 8 -9 -6 -8 -22 -14 -35 -14 -63 0 -89 99 -38 139 31 25 53 28 30
5z m232 4 c6 -7 12 -43 14 -81 l3 -67 -29 0 c-23 0 -27 3 -18 12 15 15 16 102
2 129 -8 15 -7 19 3 19 8 0 19 -6 25 -12z m402 -8 c-23 -23 -27 -77 -7 -105
10 -13 22 -16 43 -12 27 5 27 4 9 -9 -42 -31 -88 -10 -100 45 -7 35 16 87 42
94 32 8 33 7 13 -13z m318 4 c25 -18 29 -39 7 -48 -11 -4 -15 1 -15 19 0 13
-8 29 -17 34 -10 6 -13 11 -8 11 6 0 21 -7 33 -16z m190 4 c6 -7 12 -42 14
-78 3 -59 1 -65 -17 -66 -18 -2 -20 4 -17 63 2 40 -1 69 -8 78 -10 12 -9 15 3
15 8 0 19 -6 25 -12z m347 -2 c-18 -13 -16 -16 23 -54 47 -46 49 -53 25 -78
-17 -17 -18 -17 -21 8 -2 15 -14 34 -27 42 -40 26 -49 52 -25 76 11 11 25 20
32 20 6 0 3 -6 -7 -14z m-2085 -11 c0 -8 -2 -15 -4 -15 -2 0 -6 7 -10 15 -3 8
-1 15 4 15 6 0 10 -7 10 -15z m252 -27 c-16 -16 -37 4 -28 28 6 16 8 16 23 1
13 -13 15 -19 5 -29z m190 -33 c3 -74 3 -75 -22 -75 -25 0 -25 1 -22 75 3 65
6 75 22 75 16 0 19 -10 22 -75z m209 32 c-18 -18 -38 8 -21 28 12 15 14 15 23
0 6 -11 5 -21 -2 -28z m639 12 c0 -10 -7 -19 -15 -19 -15 0 -21 31 -9 43 11
10 24 -3 24 -24z m102 -43 l3 -75 -27 1 c-15 1 -25 4 -23 8 2 4 5 37 6 73 2
57 5 67 20 67 15 0 18 -11 21 -74z m99 42 c-4 -18 -4 -48 1 -65 7 -26 14 -33
34 -33 14 0 22 -4 19 -10 -3 -5 -19 -10 -35 -10 -35 0 -60 31 -60 75 0 30 24
75 40 75 4 0 5 -15 1 -32z m171 -41 c3 -67 1 -73 -17 -73 -18 0 -20 7 -20 73
0 61 3 73 17 73 14 0 17 -13 20 -73z m320 -1 l3 -73 -28 -1 c-23 -1 -26 2 -17
13 7 9 10 39 8 75 -2 51 0 60 14 60 14 0 17 -13 20 -74z m-1720 -8 c-17 -17
-15 -48 4 -48 8 0 12 -4 9 -10 -11 -18 -44 -11 -56 12 -10 18 -8 24 11 40 25
20 51 25 32 6z m742 -43 c3 -8 1 -15 -4 -15 -6 0 -10 7 -10 15 0 8 2 15 4 15
2 0 6 -7 10 -15z m-1899 -15 c3 -5 -3 -10 -15 -10 -12 0 -18 5 -15 10 3 6 10
10 15 10 5 0 12 -4 15 -10z"/>
<path d="M10110 5714 c-6 -14 -10 -81 -10 -150 l0 -124 40 0 c87 0 123 47 122
161 0 70 -19 122 -47 133 -9 3 -34 6 -56 6 -33 0 -41 -4 -49 -26z"/>
<path d="M10102 5276 c3 -177 3 -176 80 -176 88 0 134 67 126 184 -6 99 -43
133 -151 144 l-58 5 3 -157z"/>
<path d="M11335 5190 c-3 -5 -1 -10 4 -10 6 0 11 5 11 10 0 6 -2 10 -4 10 -3
0 -8 -4 -11 -10z"/>
<path d="M11747 5283 c-11 -10 -8 -73 3 -73 6 0 10 18 10 40 0 41 -2 45 -13
33z"/>
<path d="M11783 5255 c0 -22 2 -30 4 -17 2 12 2 30 0 40 -3 9 -5 -1 -4 -23z"/>
<path d="M11765 5178 c6 -20 5 -21 -6 -8 -8 8 -13 14 -12 12 1 -2 -8 -13 -19
-24 -16 -16 -17 -22 -7 -28 8 -6 3 -10 -17 -13 -16 -2 -1 -5 34 -6 41 0 61 3
57 9 -4 6 -11 8 -16 5 -5 -4 -4 6 1 21 12 30 7 54 -10 54 -7 0 -9 -9 -5 -22z"/>
<path d="M12100 5640 c0 -6 7 -10 15 -10 8 0 15 2 15 4 0 2 -7 6 -15 10 -8 3
-15 1 -15 -4z"/>
<path d="M12144 5626 c-3 -8 -4 -23 -1 -33 4 -15 5 -14 6 4 0 12 6 25 13 29 8
5 9 1 4 -12 -5 -14 -4 -16 5 -7 12 12 5 33 -12 33 -5 0 -12 -6 -15 -14z"/>
<path d="M5742 4768 c-8 -8 -12 -56 -12 -150 l0 -138 35 0 c72 0 109 38 120
126 8 58 -8 127 -36 155 -22 22 -88 26 -107 7z"/>
<path d="M5738 4464 c-5 -4 -8 -72 -8 -150 0 -170 4 -179 82 -172 80 8 118 61
118 164 0 67 -23 120 -60 139 -32 17 -122 30 -132 19z"/>
<path d="M6306 4533 c-25 -66 -46 -124 -46 -131 0 -8 28 -12 95 -12 52 0 95 4
95 9 0 14 -81 235 -90 244 -4 5 -28 -45 -54 -110z"/>
<path d="M7551 4629 c-54 -138 -81 -213 -81 -225 0 -11 20 -14 95 -14 52 0 95
3 95 8 0 13 -83 237 -91 246 -5 5 -12 -1 -18 -15z"/>
<path d="M9586 4529 c-25 -66 -46 -125 -46 -130 0 -5 45 -9 101 -9 92 0 101 2
94 18 -4 9 -25 68 -47 130 -22 61 -44 112 -48 112 -4 0 -28 -54 -54 -121z"/>
<path d="M11003 4783 c-47 -9 -48 -18 -48 -324 0 -335 -3 -325 90 -323 97 3
158 51 188 148 7 25 12 99 12 186 0 141 -1 147 -30 205 -23 46 -40 65 -70 81
-41 22 -104 34 -142 27z"/>
<path d="M11289 4233 c-13 -16 -12 -17 4 -4 9 7 17 15 17 17 0 8 -8 3 -21 -13z"/>
<path d="M11701 4761 c-6 -11 -11 -80 -11 -159 l0 -140 50 -4 c28 -1 50 0 50
5 0 4 6 7 14 7 18 0 66 56 66 76 0 9 4 13 8 10 4 -2 5 31 1 75 -5 59 -13 89
-30 113 -20 30 -27 33 -80 35 -49 2 -59 -1 -68 -18z"/>
<path d="M11930 4390 c0 -6 7 -13 15 -16 8 -4 15 -12 15 -19 0 -8 4 -17 10
-20 16 -10 -1 28 -22 48 -10 10 -18 13 -18 7z"/>
<path d="M11929 4357 c6 -8 7 -18 3 -22 -4 -5 -1 -5 6 -1 10 6 10 11 1 22 -6
8 -14 14 -16 14 -3 0 0 -6 6 -13z"/>
<path d="M11896 4231 c-14 -26 -14 -30 0 -35 12 -5 15 -2 10 10 -3 8 -1 24 4
35 6 10 8 19 6 19 -3 0 -12 -13 -20 -29z"/>
<path d="M11912 4161 c-11 -7 -11 -9 0 -13 18 -7 39 2 32 13 -6 11 -15 11 -32
0z"/>
<path d="M12380 4689 c0 -5 -5 -7 -11 -3 -8 4 -7 0 1 -15 9 -18 30 -21 30 -5
0 3 -5 2 -11 -2 -8 -4 -9 0 -4 15 3 11 4 21 1 21 -3 0 -6 -5 -6 -11z"/>
<path d="M12399 4643 c-12 -15 -12 -16 4 -10 10 4 16 3 12 -2 -6 -11 13 -26
22 -18 7 8 -7 47 -16 47 -5 0 -15 -8 -22 -17z"/>
</g>
</svg>
